<svg width="80" height="80" viewBox="0 0 80 80" fill="none" xmlns="http://www.w3.org/2000/svg">
    <path d="M49.8878 44.1271C49.8878 44.1271 49.874 44.155 49.874 44.169C43.076 65.171 31.5526 65.5896 31.5526 65.5896C31.7185 65.4431 31.8773 65.2617 32.0224 65.0454C33.2314 63.2591 33.6597 59.3727 33.6597 59.3727C22.3643 68.0177 10.5922 60.1612 9.94283 59.7146C9.93592 59.7076 9.92901 59.7076 9.91519 59.6937C10.8478 60.824 11.7598 61.8846 12.6579 62.8754C15.9394 66.5316 18.9377 69.2876 21.6735 71.2762C46.2125 89.1732 49.7358 46.1505 49.8878 44.155C49.8878 44.141 49.8878 44.1271 49.8878 44.1201V44.1271Z" fill="white"/>
    <path d="M31.9533 46.939C31.9533 46.939 31.9741 46.9529 31.981 46.9599C31.9741 46.9459 31.9602 46.939 31.9533 46.925C16.7823 31.0026 21.8255 20.5295 21.8255 20.5295C21.8738 20.7458 21.9567 20.976 22.0811 21.2063C23.0759 23.1251 26.2745 25.3299 26.2745 25.3299C24.0224 11.1867 36.4093 4.38376 37.1071 4.01395C37.1209 4.01395 37.1209 4.00698 37.1347 4C35.7116 4.30003 34.3575 4.62099 33.0656 4.94893C28.3333 6.163 24.5129 7.53755 21.4869 9.04467C-5.67731 22.525 30.2746 45.8644 31.9464 46.932L31.9533 46.939Z" fill="white"/>
    <path d="M37.9432 29.6417C37.9432 29.6417 37.9225 29.6556 37.9156 29.6556C37.9294 29.6556 37.9432 29.6486 37.9571 29.6417C59.0004 23.5923 65.7914 33.0048 65.7914 33.0048C65.5773 32.949 65.3424 32.9141 65.0799 32.9141C62.9313 32.9001 59.5047 34.7142 59.5047 34.7142C72.921 39.3403 73.0523 53.5881 73.0454 54.3836C73.0454 54.3975 73.0454 54.4045 73.0454 54.4184C73.453 53.009 73.8122 51.6484 74.1231 50.3436C75.2906 45.5502 75.871 41.5033 75.9815 38.0983C76.9487 7.54422 39.6635 28.6509 37.9432 29.6417Z" fill="white"/>
    <path d="M47.8703 32.8518C47.8703 32.8518 47.8496 32.8379 47.8427 32.8379C47.8565 32.8518 47.8634 32.8588 47.8772 32.8728C63.8497 47.9719 59.3592 58.6962 59.3592 58.6962C59.297 58.4799 59.2003 58.2566 59.069 58.0333C57.9774 56.1703 54.6683 54.1329 54.6683 54.1329C57.6528 68.1296 45.6319 75.5815 44.9549 75.9862C44.9411 75.9862 44.9411 76.0001 44.9273 76.0001C46.3366 75.6234 47.67 75.2326 48.9411 74.8349C53.6044 73.3766 57.3488 71.7928 60.2918 70.1321C86.7238 55.2354 49.6043 33.8287 47.8772 32.8449L47.8703 32.8518Z" fill="white"/>
    <path d="M30.1085 36.5777C30.1085 36.5777 30.1154 36.5498 30.1223 36.5359C35.7942 15.192 47.2761 14.1523 47.2761 14.1523C47.1172 14.3059 46.9652 14.5012 46.834 14.7245C45.7217 16.5735 45.5006 20.4809 45.5006 20.4809C56.3263 11.2358 68.4922 18.4435 69.1623 18.8551C69.1692 18.8621 69.1761 18.8621 69.1899 18.8691C68.1951 17.7946 67.2279 16.7828 66.2814 15.8409C62.8134 12.3731 59.67 9.77751 56.8306 7.94245C31.3727 -8.60098 30.143 34.5543 30.1016 36.5498C30.1016 36.5638 30.1016 36.5777 30.1016 36.5847L30.1085 36.5777Z" fill="white"/>
    <path d="M41.687 50.6787C41.687 50.6787 41.7078 50.6648 41.7147 50.6648C41.7008 50.6648 41.687 50.6648 41.6663 50.6717C20.3466 55.6257 14.0392 45.8783 14.0392 45.8783C14.2464 45.948 14.4882 45.9899 14.7438 46.0039C16.8855 46.1294 20.4019 44.4898 20.4019 44.4898C7.24119 39.1799 7.82842 24.946 7.87678 24.1506C7.87678 24.1367 7.87678 24.1297 7.87678 24.1157C7.40009 25.5042 6.97176 26.8439 6.59179 28.1277C5.18937 32.8514 4.39489 36.8704 4.11855 40.2614C1.60385 70.7248 39.9115 51.5718 41.6732 50.6717L41.687 50.6787Z" fill="white"/>
</svg>
