<svg width="24" height="24" viewBox="0 0 24 24" fill="none" xmlns="http://www.w3.org/2000/svg">
    <path d="M10 18C14.4183 18 18 14.4183 18 10C18 5.58172 14.4183 2 10 2C5.58172 2 2 5.58172 2 10C2 14.4183 5.58172 18 10 18Z" stroke="#5B6A87" stroke-width="2" stroke-linecap="round" stroke-linejoin="round"/>
    <path d="M22 22L15.5 16" stroke="#5B6A87" stroke-width="2" stroke-linecap="round" stroke-linejoin="round"/>
    <path fill-rule="evenodd" clip-rule="evenodd" d="M15 10C15 12.7614 12.7614 15 10 15C7.23858 15 5 12.7614 5 10C5 7.23858 7.23858 5 10 5C12.7614 5 15 7.23858 15 10ZM12.7602 9.64972C13.119 9.22989 13.0696 8.59866 12.6497 8.23983C12.2299 7.881 11.5987 7.93045 11.2398 8.35028L9.46249 10.4298L8.78174 9.57639C8.43733 9.14465 7.80813 9.07385 7.37639 9.41826C6.94465 9.76267 6.87385 10.3919 7.21826 10.8236L8.65416 12.6236C8.84021 12.8568 9.12067 12.9948 9.41896 12.9999C9.71726 13.0049 10.0022 12.8765 10.1961 12.6497L12.7602 9.64972Z" fill="#5B6A87"/>
</svg>
