<svg width="16" height="16" viewBox="0 0 16 16" fill="none" xmlns="http://www.w3.org/2000/svg">
    <path fill-rule="evenodd" clip-rule="evenodd" d="M8 15.3332C8 15.3332 14 11.3332 14 6.6665C14 5.07521 13.3679 3.54908 12.2426 2.42386C11.1174 1.29864 9.5913 0.666504 8 0.666504C6.4087 0.666504 4.88258 1.29864 3.75736 2.42386C2.63214 3.54908 2 5.07521 2 6.6665C2 11.3332 8 15.3332 8 15.3332ZM10 6.99988C10 8.10445 9.10457 8.99988 8 8.99988C6.89543 8.99988 6 8.10445 6 6.99988C6 5.89531 6.89543 4.99988 8 4.99988C9.10457 4.99988 10 5.89531 10 6.99988Z" fill="#235FD5"/>
</svg>
