<svg width="304" height="80" viewBox="0 0 304 80" fill="none" xmlns="http://www.w3.org/2000/svg">
    <path d="M93.1021 48.1701H94.9555L99.3137 58.6763H99.464L103.822 48.1701H105.676V60.827H104.223V51.2107H104.098L100.09 60.827H98.6875L94.68 51.2107H94.5548V60.827H93.1021V48.1701Z" fill="#235FD5"/>
    <path d="M111.079 60.827H109.451L114.159 48.1701H115.762L120.471 60.827H118.843L115.011 50.1725H114.911L111.079 60.827ZM111.68 55.8829H118.242V57.2425H111.68V55.8829Z" fill="#235FD5"/>
    <path d="M125.785 48.1701V60.827H124.232V48.1701H125.785Z" fill="#235FD5"/>
    <path d="M140.831 48.1701V60.827H139.328L132.34 50.8893H132.215V60.827H130.662V48.1701H132.165L139.178 58.1324H139.303V48.1701H140.831Z" fill="#235FD5"/>
    <path d="M145 49.5297V48.1701H154.618V49.5297H150.586V60.827H149.033V49.5297H145Z" fill="#235FD5"/>
    <path d="M158.778 60.827V48.1701H166.518V49.5297H160.331V53.8064H166.117V55.166H160.331V59.4673H166.618V60.827H158.778Z" fill="#235FD5"/>
    <path d="M181.249 48.1701V60.827H179.746L172.758 50.8893H172.633V60.827H171.08V48.1701H172.583L179.596 58.1324H179.721V48.1701H181.249Z" fill="#235FD5"/>
    <path d="M186.646 60.827H185.018L189.727 48.1701H191.33L196.038 60.827H194.41L190.578 50.1725H190.478L186.646 60.827ZM187.247 55.8829H193.809V57.2425H187.247V55.8829Z" fill="#235FD5"/>
    <path d="M209.968 48.1701V60.827H208.465L201.477 50.8893H201.352V60.827H199.799V48.1701H201.302L208.315 58.1324H208.44V48.1701H209.968Z" fill="#235FD5"/>
    <path d="M225.158 52.1254H223.605C223.514 51.6845 223.353 51.2972 223.123 50.9635C222.898 50.6298 222.622 50.3496 222.297 50.123C221.975 49.8923 221.618 49.7192 221.226 49.6039C220.834 49.4885 220.424 49.4308 219.999 49.4308C219.222 49.4308 218.519 49.6245 217.888 50.0118C217.262 50.3991 216.763 50.9697 216.392 51.7237C216.025 52.4776 215.841 53.4026 215.841 54.4985C215.841 55.5945 216.025 56.5194 216.392 57.2734C216.763 58.0274 217.262 58.598 217.888 58.9853C218.519 59.3726 219.222 59.5662 219.999 59.5662C220.424 59.5662 220.834 59.5085 221.226 59.3932C221.618 59.2778 221.975 59.1068 222.297 58.8802C222.622 58.6495 222.898 58.3673 223.123 58.0336C223.353 57.6957 223.514 57.3084 223.605 56.8717H225.158C225.041 57.5185 224.829 58.0974 224.52 58.6083C224.211 59.1192 223.827 59.5539 223.367 59.9123C222.908 60.2666 222.393 60.5365 221.821 60.7219C221.253 60.9073 220.646 61 219.999 61C218.905 61 217.932 60.7363 217.081 60.209C216.229 59.6816 215.559 58.9317 215.071 57.9594C214.582 56.9871 214.338 55.8334 214.338 54.4985C214.338 53.1636 214.582 52.01 215.071 51.0377C215.559 50.0653 216.229 49.3155 217.081 48.7881C217.932 48.2607 218.905 47.9971 219.999 47.9971C220.646 47.9971 221.253 48.0898 221.821 48.2752C222.393 48.4606 222.908 48.7325 223.367 49.0909C223.827 49.4453 224.211 49.8779 224.52 50.3888C224.829 50.8955 225.041 51.4744 225.158 52.1254Z" fill="#235FD5"/>
    <path d="M229.431 60.827V48.1701H237.171V49.5297H230.984V53.8064H236.77V55.166H230.984V59.4673H237.271V60.827H229.431Z" fill="#235FD5"/>
    <path d="M97.6731 37.9853L92 19H97.8234L100.453 30.6804H100.604L103.722 19H108.306L111.424 30.7175H111.574L114.204 19H120.028L114.354 37.9853H109.358L106.089 27.3802H105.939L102.67 37.9853H97.6731Z" fill="#0D0D15"/>
    <path d="M128.263 19V37.9853H123.041V19H128.263Z" fill="#0D0D15"/>
    <path d="M148.704 19V37.9853H144.346L137.395 28.0106H137.283V37.9853H132.06V19H136.494L143.332 28.9376H143.482V19H148.704Z" fill="#0D0D15"/>
    <path d="M159.898 37.9853H152.497V19H159.823C161.802 19 163.511 19.3801 164.951 20.1402C166.398 20.8942 167.512 21.9819 168.295 23.4033C169.084 24.8186 169.479 26.515 169.479 28.4926C169.479 30.4703 169.087 32.1698 168.305 33.5912C167.522 35.0065 166.414 36.0942 164.98 36.8543C163.546 37.6083 161.852 37.9853 159.898 37.9853ZM157.719 33.6098H159.71C160.662 33.6098 161.473 33.4584 162.143 33.1555C162.819 32.8527 163.333 32.3305 163.683 31.5889C164.04 30.8473 164.219 29.8152 164.219 28.4926C164.219 27.1701 164.037 26.138 163.674 25.3964C163.317 24.6548 162.791 24.1326 162.096 23.8298C161.407 23.5269 160.562 23.3755 159.56 23.3755H157.719V33.6098Z" fill="#0D0D15"/>
    <path d="M179.283 23.153V19H196.002V23.153H190.216V37.9853H185.069V23.153H179.283Z" fill="#0D0D15"/>
    <path d="M210.674 19H215.896V31.1624C215.896 32.6086 215.545 33.8601 214.844 34.9169C214.149 35.9675 213.178 36.7802 211.932 37.3549C210.686 37.9235 209.24 38.2078 207.593 38.2078C205.934 38.2078 204.481 37.9235 203.235 37.3549C201.989 36.7802 201.018 35.9675 200.323 34.9169C199.634 33.8601 199.29 32.6086 199.29 31.1624V19H204.512V30.7175C204.512 31.3046 204.644 31.8299 204.907 32.2934C205.17 32.7507 205.533 33.1092 205.996 33.3687C206.466 33.6283 206.998 33.7581 207.593 33.7581C208.194 33.7581 208.726 33.6283 209.19 33.3687C209.653 33.1092 210.016 32.7507 210.279 32.2934C210.542 31.8299 210.674 31.3046 210.674 30.7175V19Z" fill="#0D0D15"/>
    <path d="M219.7 37.9853V19H228.004C229.431 19 230.68 19.2565 231.751 19.7694C232.822 20.2824 233.655 21.0209 234.25 21.985C234.844 22.9491 235.142 24.1048 235.142 25.452C235.142 26.8117 234.835 27.9581 234.221 28.8913C233.614 29.8245 232.759 30.529 231.657 31.0049C230.561 31.4807 229.281 31.7187 227.816 31.7187H222.856V27.714H226.764C227.377 27.714 227.9 27.6398 228.332 27.4915C228.771 27.337 229.106 27.0928 229.337 26.7591C229.575 26.4254 229.694 25.9897 229.694 25.452C229.694 24.9082 229.575 24.4663 229.337 24.1264C229.106 23.7803 228.771 23.5269 228.332 23.3662C227.9 23.1994 227.377 23.116 226.764 23.116H224.923V37.9853H219.7ZM230.972 29.2713L235.781 37.9853H230.107L225.411 29.2713H230.972Z" fill="#0D0D15"/>
    <path d="M238.69 37.9853V19H247.031C248.496 19 249.727 19.1947 250.722 19.584C251.724 19.9734 252.479 20.5234 252.986 21.2341C253.499 21.9448 253.756 22.7822 253.756 23.7463C253.756 24.4447 253.6 25.0812 253.287 25.656C252.98 26.2307 252.548 26.7128 251.99 27.1021C251.433 27.4853 250.782 27.751 250.037 27.8994V28.0848C250.863 28.1157 251.615 28.3227 252.291 28.7059C252.967 29.0828 253.506 29.6051 253.906 30.2725C254.307 30.9338 254.508 31.7125 254.508 32.6086C254.508 33.6469 254.232 34.5708 253.681 35.3804C253.136 36.19 252.36 36.8265 251.352 37.29C250.344 37.7535 249.141 37.9853 247.745 37.9853H238.69ZM243.913 33.8693H246.355C247.231 33.8693 247.889 33.7087 248.327 33.3873C248.766 33.0597 248.985 32.5777 248.985 31.9411C248.985 31.4962 248.881 31.1192 248.675 30.8102C248.468 30.5012 248.174 30.2663 247.792 30.1057C247.416 29.945 246.962 29.8646 246.43 29.8646H243.913V33.8693ZM243.913 26.6757H246.054C246.511 26.6757 246.915 26.6046 247.266 26.4625C247.617 26.3203 247.889 26.1164 248.083 25.8506C248.283 25.5787 248.384 25.2481 248.384 24.8587C248.384 24.2716 248.171 23.8236 247.745 23.5146C247.319 23.1994 246.781 23.0418 246.129 23.0418H243.913V26.6757Z" fill="#0D0D15"/>
    <path d="M262.903 19V37.9853H257.68V19H262.903Z" fill="#0D0D15"/>
    <path d="M283.344 19V37.9853H278.986L272.035 28.0106H271.922V37.9853H266.7V19H271.133L277.971 28.9376H278.121V19H283.344Z" fill="#0D0D15"/>
    <path d="M287.137 37.9853V19H301V23.153H292.359V26.4161H300.286V30.5692H292.359V33.8323H300.962V37.9853H287.137Z" fill="#0D0D15"/>
    <path d="M45.8879 44.1271C45.8879 44.1271 45.8741 44.155 45.8741 44.169C39.0761 65.171 27.5527 65.5896 27.5527 65.5896C27.7185 65.4431 27.8774 65.2617 28.0225 65.0454C29.2315 63.2591 29.6598 59.3727 29.6598 59.3727C18.3644 68.0177 6.59232 60.1612 5.94292 59.7146C5.93601 59.7076 5.9291 59.7076 5.91528 59.6937C6.84793 60.824 7.75986 61.8846 8.65796 62.8754C11.9395 66.5316 14.9378 69.2876 17.6736 71.2762C42.2126 89.1732 45.7359 46.1505 45.8879 44.155C45.8879 44.141 45.8879 44.1271 45.8879 44.1201V44.1271Z" fill="url(#paint0_linear_60_4856)"/>
    <path d="M27.9533 46.939C27.9533 46.939 27.974 46.9529 27.9809 46.9599C27.974 46.9459 27.9602 46.939 27.9533 46.925C12.7822 31.0026 17.8254 20.5295 17.8254 20.5295C17.8738 20.7458 17.9567 20.976 18.081 21.2063C19.0759 23.1251 22.2745 25.3299 22.2745 25.3299C20.0223 11.1867 32.4093 4.38376 33.107 4.01395C33.1209 4.01395 33.1209 4.00698 33.1347 4C31.7115 4.30003 30.3575 4.62099 29.0656 4.94893C24.3332 6.163 20.5128 7.53755 17.4869 9.04467C-9.67736 22.525 26.2745 45.8644 27.9464 46.932L27.9533 46.939Z" fill="url(#paint1_linear_60_4856)"/>
    <path d="M33.9433 29.6417C33.9433 29.6417 33.9226 29.6556 33.9156 29.6556C33.9295 29.6556 33.9433 29.6486 33.9571 29.6417C55.0004 23.5923 61.7915 33.0048 61.7915 33.0048C61.5773 32.949 61.3424 32.9141 61.0799 32.9141C58.9314 32.9001 55.5047 34.7142 55.5047 34.7142C68.9211 39.3403 69.0523 53.5881 69.0454 54.3836C69.0454 54.3975 69.0454 54.4045 69.0454 54.4184C69.453 53.009 69.8123 51.6484 70.1232 50.3436C71.2907 45.5502 71.871 41.5033 71.9815 38.0983C72.9487 7.54422 35.6635 28.6509 33.9433 29.6417Z" fill="url(#paint2_linear_60_4856)"/>
    <path d="M43.8703 32.8518C43.8703 32.8518 43.8495 32.8379 43.8426 32.8379C43.8565 32.8518 43.8634 32.8588 43.8772 32.8728C59.8497 47.9719 55.3591 58.6962 55.3591 58.6962C55.297 58.4799 55.2002 58.2566 55.069 58.0333C53.9774 56.1703 50.6682 54.1329 50.6682 54.1329C53.6527 68.1296 41.6319 75.5815 40.9549 75.9862C40.9411 75.9862 40.9411 76.0001 40.9272 76.0001C42.3366 75.6234 43.6699 75.2326 44.9411 74.8349C49.6043 73.3766 53.3487 71.7928 56.2918 70.1321C82.7237 55.2354 45.6043 33.8287 43.8772 32.8449L43.8703 32.8518Z" fill="url(#paint3_linear_60_4856)"/>
    <path d="M26.1085 36.5777C26.1085 36.5777 26.1154 36.5498 26.1223 36.5359C31.7942 15.192 43.2761 14.1523 43.2761 14.1523C43.1172 14.3059 42.9652 14.5012 42.834 14.7245C41.7217 16.5735 41.5006 20.4809 41.5006 20.4809C52.3263 11.2358 64.4922 18.4435 65.1623 18.8551C65.1692 18.8621 65.1761 18.8621 65.1899 18.8691C64.1951 17.7946 63.2279 16.7828 62.2814 15.8409C58.8134 12.3731 55.67 9.77751 52.8306 7.94245C27.3727 -8.60098 26.143 34.5543 26.1016 36.5498C26.1016 36.5638 26.1016 36.5777 26.1016 36.5847L26.1085 36.5777Z" fill="url(#paint4_linear_60_4856)"/>
    <path d="M37.687 50.6787C37.687 50.6787 37.7078 50.6648 37.7147 50.6648C37.7008 50.6648 37.687 50.6648 37.6663 50.6717C16.3466 55.6257 10.0392 45.8783 10.0392 45.8783C10.2464 45.948 10.4882 45.9899 10.7438 46.0039C12.8855 46.1294 16.4019 44.4898 16.4019 44.4898C3.24119 39.1799 3.82842 24.946 3.87678 24.1506C3.87678 24.1367 3.87678 24.1297 3.87678 24.1157C3.40009 25.5042 2.97176 26.8439 2.59179 28.1277C1.18937 32.8514 0.394887 36.8704 0.118547 40.2614C-2.39615 70.7248 35.9115 51.5718 37.6732 50.6717L37.687 50.6787Z" fill="url(#paint5_linear_60_4856)"/>
    <defs>
        <linearGradient id="paint0_linear_60_4856" x1="45.8879" y1="59.8716" x2="5.91528" y2="59.8716" gradientUnits="userSpaceOnUse">
            <stop stop-color="#FF9467"/>
            <stop offset="1" stop-color="#E35231"/>
        </linearGradient>
        <linearGradient id="paint1_linear_60_4856" x1="33.1347" y1="25.48" x2="7.36963" y2="25.48" gradientUnits="userSpaceOnUse">
            <stop stop-color="#FF9467"/>
            <stop offset="1" stop-color="#E35231"/>
        </linearGradient>
        <linearGradient id="paint2_linear_60_4856" x1="72" y1="38.0193" x2="33.9156" y2="38.0193" gradientUnits="userSpaceOnUse">
            <stop stop-color="#FF9467"/>
            <stop offset="1" stop-color="#E35231"/>
        </linearGradient>
        <linearGradient id="paint3_linear_60_4856" x1="53.3434" y1="76.0001" x2="53.3434" y2="32.8379" gradientUnits="userSpaceOnUse">
            <stop offset="0.615" stop-color="#1A60CC"/>
            <stop offset="1" stop-color="#154287"/>
        </linearGradient>
        <linearGradient id="paint4_linear_60_4856" x1="45.6457" y1="36.5847" x2="45.6457" y2="4.17334" gradientUnits="userSpaceOnUse">
            <stop offset="0.615" stop-color="#1A60CC"/>
            <stop offset="1" stop-color="#154287"/>
        </linearGradient>
        <linearGradient id="paint5_linear_60_4856" x1="18.8573" y1="57.4374" x2="18.8573" y2="24.1157" gradientUnits="userSpaceOnUse">
            <stop offset="0.615" stop-color="#1A60CC"/>
            <stop offset="1" stop-color="#154287"/>
        </linearGradient>
    </defs>
</svg>
