<svg width="370" height="102" viewBox="0 0 370 102" fill="none" xmlns="http://www.w3.org/2000/svg">
    <rect width="370" height="102" rx="20" fill="#235FD5"/>
    <path d="M109.102 59.1701H110.956L115.314 69.6763H115.464L119.822 59.1701H121.676V71.827H120.223V62.2107H120.098L116.09 71.827H114.688L110.68 62.2107H110.555V71.827H109.102V59.1701Z" fill="white"/>
    <path d="M127.079 71.827H125.451L130.159 59.1701H131.762L136.471 71.827H134.843L131.011 61.1725H130.911L127.079 71.827ZM127.68 66.8829H134.242V68.2425H127.68V66.8829Z" fill="white"/>
    <path d="M141.785 59.1701V71.827H140.232V59.1701H141.785Z" fill="white"/>
    <path d="M156.831 59.1701V71.827H155.328L148.34 61.8893H148.215V71.827H146.662V59.1701H148.165L155.178 69.1324H155.303V59.1701H156.831Z" fill="white"/>
    <path d="M161 60.5297V59.1701H170.618V60.5297H166.586V71.827H165.033V60.5297H161Z" fill="white"/>
    <path d="M174.778 71.827V59.1701H182.518V60.5297H176.331V64.8064H182.117V66.166H176.331V70.4673H182.618V71.827H174.778Z" fill="white"/>
    <path d="M197.249 59.1701V71.827H195.746L188.758 61.8893H188.633V71.827H187.08V59.1701H188.583L195.596 69.1324H195.721V59.1701H197.249Z" fill="white"/>
    <path d="M202.646 71.827H201.018L205.727 59.1701H207.33L212.038 71.827H210.41L206.578 61.1725H206.478L202.646 71.827ZM203.247 66.8829H209.809V68.2425H203.247V66.8829Z" fill="white"/>
    <path d="M225.968 59.1701V71.827H224.465L217.477 61.8893H217.352V71.827H215.799V59.1701H217.302L224.315 69.1324H224.44V59.1701H225.968Z" fill="white"/>
    <path d="M241.158 63.1254H239.605C239.514 62.6845 239.353 62.2972 239.123 61.9635C238.898 61.6298 238.622 61.3496 238.297 61.123C237.975 60.8923 237.618 60.7192 237.226 60.6039C236.834 60.4885 236.424 60.4308 235.999 60.4308C235.222 60.4308 234.519 60.6245 233.888 61.0118C233.262 61.3991 232.763 61.9697 232.392 62.7237C232.025 63.4776 231.841 64.4026 231.841 65.4985C231.841 66.5945 232.025 67.5194 232.392 68.2734C232.763 69.0274 233.262 69.598 233.888 69.9853C234.519 70.3726 235.222 70.5662 235.999 70.5662C236.424 70.5662 236.834 70.5085 237.226 70.3932C237.618 70.2778 237.975 70.1068 238.297 69.8802C238.622 69.6495 238.898 69.3673 239.123 69.0336C239.353 68.6957 239.514 68.3084 239.605 67.8717H241.158C241.041 68.5185 240.829 69.0974 240.52 69.6083C240.211 70.1192 239.827 70.5539 239.367 70.9123C238.908 71.2666 238.393 71.5365 237.821 71.7219C237.253 71.9073 236.646 72 235.999 72C234.905 72 233.932 71.7363 233.081 71.209C232.229 70.6816 231.559 69.9317 231.071 68.9594C230.582 67.9871 230.338 66.8334 230.338 65.4985C230.338 64.1636 230.582 63.01 231.071 62.0377C231.559 61.0653 232.229 60.3155 233.081 59.7881C233.932 59.2607 234.905 58.9971 235.999 58.9971C236.646 58.9971 237.253 59.0898 237.821 59.2752C238.393 59.4606 238.908 59.7325 239.367 60.0909C239.827 60.4453 240.211 60.8779 240.52 61.3888C240.829 61.8955 241.041 62.4744 241.158 63.1254Z" fill="white"/>
    <path d="M245.431 71.827V59.1701H253.171V60.5297H246.984V64.8064H252.77V66.166H246.984V70.4673H253.271V71.827H245.431Z" fill="white"/>
    <path d="M113.673 48.9853L108 30H113.823L116.453 41.6804H116.604L119.722 30H124.306L127.424 41.7175H127.574L130.204 30H136.028L130.354 48.9853H125.358L122.089 38.3802H121.939L118.67 48.9853H113.673Z" fill="white"/>
    <path d="M144.263 30V48.9853H139.041V30H144.263Z" fill="white"/>
    <path d="M164.704 30V48.9853H160.346L153.395 39.0106H153.283V48.9853H148.06V30H152.494L159.332 39.9376H159.482V30H164.704Z" fill="white"/>
    <path d="M175.898 48.9853H168.497V30H175.823C177.802 30 179.511 30.3801 180.951 31.1402C182.398 31.8942 183.512 32.9819 184.295 34.4033C185.084 35.8186 185.479 37.515 185.479 39.4926C185.479 41.4703 185.087 43.1698 184.305 44.5912C183.522 46.0065 182.414 47.0942 180.98 47.8543C179.546 48.6083 177.852 48.9853 175.898 48.9853ZM173.719 44.6098H175.71C176.662 44.6098 177.473 44.4584 178.143 44.1555C178.819 43.8527 179.333 43.3305 179.683 42.5889C180.04 41.8473 180.219 40.8152 180.219 39.4926C180.219 38.1701 180.037 37.138 179.674 36.3964C179.317 35.6548 178.791 35.1326 178.096 34.8298C177.407 34.5269 176.562 34.3755 175.56 34.3755H173.719V44.6098Z" fill="white"/>
    <path d="M195.283 34.153V30H212.002V34.153H206.216V48.9853H201.069V34.153H195.283Z" fill="white"/>
    <path d="M226.674 30H231.896V42.1624C231.896 43.6086 231.545 44.8601 230.844 45.9169C230.149 46.9675 229.178 47.7802 227.932 48.3549C226.686 48.9235 225.24 49.2078 223.593 49.2078C221.934 49.2078 220.481 48.9235 219.235 48.3549C217.989 47.7802 217.018 46.9675 216.323 45.9169C215.634 44.8601 215.29 43.6086 215.29 42.1624V30H220.512V41.7175C220.512 42.3046 220.644 42.8299 220.907 43.2934C221.17 43.7507 221.533 44.1092 221.996 44.3687C222.466 44.6283 222.998 44.7581 223.593 44.7581C224.194 44.7581 224.726 44.6283 225.19 44.3687C225.653 44.1092 226.016 43.7507 226.279 43.2934C226.542 42.8299 226.674 42.3046 226.674 41.7175V30Z" fill="white"/>
    <path d="M235.7 48.9853V30H244.004C245.431 30 246.68 30.2565 247.751 30.7694C248.822 31.2824 249.655 32.0209 250.25 32.985C250.844 33.9491 251.142 35.1048 251.142 36.452C251.142 37.8117 250.835 38.9581 250.221 39.8913C249.614 40.8245 248.759 41.529 247.657 42.0049C246.561 42.4807 245.281 42.7187 243.816 42.7187H238.856V38.714H242.764C243.377 38.714 243.9 38.6398 244.332 38.4915C244.771 38.337 245.106 38.0928 245.337 37.7591C245.575 37.4254 245.694 36.9897 245.694 36.452C245.694 35.9082 245.575 35.4663 245.337 35.1264C245.106 34.7803 244.771 34.5269 244.332 34.3662C243.9 34.1994 243.377 34.116 242.764 34.116H240.923V48.9853H235.7ZM246.972 40.2713L251.781 48.9853H246.107L241.411 40.2713H246.972Z" fill="white"/>
    <path d="M254.69 48.9853V30H263.031C264.496 30 265.727 30.1947 266.722 30.584C267.724 30.9734 268.479 31.5234 268.986 32.2341C269.499 32.9448 269.756 33.7822 269.756 34.7463C269.756 35.4447 269.6 36.0812 269.287 36.656C268.98 37.2307 268.548 37.7128 267.99 38.1021C267.433 38.4853 266.782 38.751 266.037 38.8994V39.0848C266.863 39.1157 267.615 39.3227 268.291 39.7059C268.967 40.0828 269.506 40.6051 269.906 41.2725C270.307 41.9338 270.508 42.7125 270.508 43.6086C270.508 44.6469 270.232 45.5708 269.681 46.3804C269.136 47.19 268.36 47.8265 267.352 48.29C266.344 48.7535 265.141 48.9853 263.745 48.9853H254.69ZM259.913 44.8693H262.355C263.231 44.8693 263.889 44.7087 264.327 44.3873C264.766 44.0597 264.985 43.5777 264.985 42.9411C264.985 42.4962 264.881 42.1192 264.675 41.8102C264.468 41.5012 264.174 41.2663 263.792 41.1057C263.416 40.945 262.962 40.8646 262.43 40.8646H259.913V44.8693ZM259.913 37.6757H262.054C262.511 37.6757 262.915 37.6046 263.266 37.4625C263.617 37.3203 263.889 37.1164 264.083 36.8506C264.283 36.5787 264.384 36.2481 264.384 35.8587C264.384 35.2716 264.171 34.8236 263.745 34.5146C263.319 34.1994 262.781 34.0418 262.129 34.0418H259.913V37.6757Z" fill="white"/>
    <path d="M278.903 30V48.9853H273.68V30H278.903Z" fill="white"/>
    <path d="M299.344 30V48.9853H294.986L288.035 39.0106H287.922V48.9853H282.7V30H287.133L293.971 39.9376H294.121V30H299.344Z" fill="white"/>
    <path d="M303.137 48.9853V30H317V34.153H308.359V37.4161H316.286V41.5692H308.359V44.8323H316.962V48.9853H303.137Z" fill="white"/>
    <path d="M61.8878 55.1271C61.8878 55.1271 61.874 55.155 61.874 55.169C55.076 76.171 43.5526 76.5896 43.5526 76.5896C43.7184 76.4431 43.8773 76.2617 44.0224 76.0454C45.2314 74.2591 45.6597 70.3727 45.6597 70.3727C34.3643 79.0177 22.5922 71.1612 21.9428 70.7146C21.9359 70.7076 21.929 70.7076 21.9152 70.6937C22.8478 71.824 23.7597 72.8846 24.6578 73.8754C27.9394 77.5316 30.9377 80.2876 33.6734 82.2762C58.2125 100.173 61.7358 57.1505 61.8878 55.155C61.8878 55.141 61.8878 55.1271 61.8878 55.1201V55.1271Z" fill="white"/>
    <path d="M43.9534 57.939C43.9534 57.939 43.9741 57.9529 43.981 57.9599C43.9741 57.9459 43.9603 57.939 43.9534 57.925C28.7823 42.0026 33.8255 31.5295 33.8255 31.5295C33.8738 31.7458 33.9567 31.976 34.0811 32.2063C35.0759 34.1251 38.2746 36.3299 38.2746 36.3299C36.0224 22.1867 48.4093 15.3838 49.1071 15.014C49.1209 15.014 49.1209 15.007 49.1347 15C47.7116 15.3 46.3575 15.621 45.0656 15.9489C40.3333 17.163 36.5129 18.5375 33.487 20.0447C6.3227 33.525 42.2746 56.8644 43.9464 57.932L43.9534 57.939Z" fill="white"/>
    <path d="M49.9432 40.6417C49.9432 40.6417 49.9225 40.6556 49.9156 40.6556C49.9294 40.6556 49.9432 40.6486 49.957 40.6417C71.0004 34.5923 77.7914 44.0048 77.7914 44.0048C77.5773 43.949 77.3424 43.9141 77.0799 43.9141C74.9313 43.9001 71.5047 45.7142 71.5047 45.7142C84.921 50.3403 85.0523 64.5881 85.0454 65.3836C85.0454 65.3975 85.0454 65.4045 85.0454 65.4184C85.453 64.009 85.8122 62.6484 86.1231 61.3436C87.2906 56.5502 87.871 52.5033 87.9815 49.0983C88.9487 18.5442 51.6634 39.6509 49.9432 40.6417Z" fill="white"/>
    <path d="M59.8703 43.8518C59.8703 43.8518 59.8496 43.8379 59.8427 43.8379C59.8565 43.8518 59.8634 43.8588 59.8772 43.8728C75.8497 58.9719 71.3592 69.6962 71.3592 69.6962C71.297 69.4799 71.2003 69.2566 71.069 69.0333C69.9775 67.1703 66.6683 65.1329 66.6683 65.1329C69.6528 79.1296 57.632 86.5815 56.9549 86.9862C56.9411 86.9862 56.9411 87.0001 56.9273 87.0001C58.3366 86.6234 59.67 86.2326 60.9411 85.8349C65.6044 84.3766 69.3488 82.7928 72.2918 81.1321C98.7238 66.2354 61.6044 44.8287 59.8772 43.8449L59.8703 43.8518Z" fill="white"/>
    <path d="M42.1085 47.5777C42.1085 47.5777 42.1154 47.5498 42.1223 47.5359C47.7942 26.192 59.2761 25.1523 59.2761 25.1523C59.1172 25.3059 58.9652 25.5012 58.834 25.7245C57.7217 27.5735 57.5006 31.4809 57.5006 31.4809C68.3263 22.2358 80.4922 29.4435 81.1623 29.8551C81.1692 29.8621 81.1761 29.8621 81.1899 29.8691C80.1951 28.7946 79.2279 27.7828 78.2814 26.8409C74.8134 23.3731 71.67 20.7775 68.8306 18.9425C43.3727 2.39902 42.143 45.5543 42.1016 47.5498C42.1016 47.5638 42.1016 47.5777 42.1016 47.5847L42.1085 47.5777Z" fill="white"/>
    <path d="M53.687 61.6787C53.687 61.6787 53.7078 61.6648 53.7147 61.6648C53.7008 61.6648 53.687 61.6648 53.6663 61.6717C32.3466 66.6257 26.0392 56.8783 26.0392 56.8783C26.2464 56.948 26.4882 56.9899 26.7438 57.0039C28.8855 57.1294 32.4019 55.4898 32.4019 55.4898C19.2412 50.1799 19.8284 35.946 19.8768 35.1506C19.8768 35.1367 19.8768 35.1297 19.8768 35.1157C19.4001 36.5042 18.9718 37.8439 18.5918 39.1277C17.1894 43.8514 16.3949 47.8704 16.1185 51.2614C13.6038 81.7248 51.9115 62.5718 53.6732 61.6717L53.687 61.6787Z" fill="white"/>
</svg>
