<svg width="24" height="24" viewBox="0 0 24 24" fill="none" xmlns="http://www.w3.org/2000/svg">
    <g clip-path="url(#clip0_74_98)">
        <path d="M11.9951 9.1875C10.444 9.1875 9.18262 10.4489 9.18262 12C9.18262 13.5511 10.444 14.8125 11.9951 14.8125C13.5463 14.8125 14.8076 13.5511 14.8076 12C14.8076 10.4489 13.5463 9.1875 11.9951 9.1875ZM11.9951 12.703C11.6067 12.703 11.292 12.3882 11.292 11.9999C11.292 11.6116 11.6067 11.2968 11.9951 11.2968C12.3834 11.2968 12.6982 11.6116 12.6982 11.9999C12.6982 12.3882 12.3834 12.703 11.9951 12.703Z"
              fill="currentColor"/>
        <path d="M11.292 0C9.23634 0 6.37012 0.924141 6.37012 2.8125C6.37012 3.70927 7.09246 4.53188 8.35176 5.06813C9.67044 5.63049 10.7167 6.65583 11.3301 7.84847C11.5482 7.81364 11.7674 7.78125 11.9951 7.78125C12.9629 7.78125 13.8446 8.12189 14.5572 8.67192C15.6674 7.67147 16.3218 6.15089 16.2104 4.59572C16.0264 2.02767 13.8669 0.00890625 11.292 0Z"
              fill="currentColor"/>
        <path d="M21.1875 6.32324C20.2908 6.32324 19.4213 7.09246 18.885 8.35176C18.3221 9.67241 17.3417 10.7199 16.1465 11.3324C16.1817 11.5512 16.2139 11.7713 16.2139 11.9999C16.2139 12.9654 15.8751 13.8454 15.3274 14.5571C16.2491 15.5833 17.5737 16.2234 19.0003 16.2234C21.7399 16.2234 23.9906 13.9812 24 11.2919C24 9.20643 23.0866 6.32324 21.1875 6.32324Z"
              fill="currentColor"/>
        <path d="M15.6475 18.9318C14.3269 18.3686 13.2818 17.3427 12.6725 16.1502C12.4507 16.1864 12.2272 16.2186 11.9953 16.2186C11.0311 16.2186 10.1522 15.8808 9.44095 15.3345C8.33175 16.3353 7.67841 17.8531 7.78959 19.4042C7.97292 21.9722 10.1331 23.991 12.708 23.9999H12.7101C14.7968 23.9999 17.6299 23.0765 17.6299 21.1874C17.6299 20.2899 16.9068 19.468 15.6475 18.9318Z"
              fill="currentColor"/>
        <path d="M0 12.7079C0 14.7898 0.907734 17.6298 2.8125 17.6298C3.70856 17.6298 4.53047 16.9074 5.06813 15.6481C5.63058 14.3289 6.65456 13.285 7.84467 12.6754C7.80872 12.4542 7.77642 12.2313 7.77642 12C7.77642 11.0296 8.11889 10.1457 8.67164 9.43216C7.69069 8.3335 6.19833 7.68292 4.59572 7.78942C2.02767 7.97275 0.00890625 10.1322 0 12.7079Z"
              fill="currentColor"/>
    </g>
    <defs>
        <clipPath id="clip0_74_98">
            <rect width="24" height="24" fill="white"/>
        </clipPath>
    </defs>
</svg>
